<svg xmlns="http://www.w3.org/2000/svg" viewBox="0 0 64 64" role="img" aria-label="TheologAI illuminated T">
  <rect width="64" height="64" rx="11" fill="#080a10"/>
  <rect x="4.5" y="4.5" width="55" height="55" rx="8" fill="none" stroke="#d2b36f" stroke-width="2"/>
  <rect x="8.5" y="8.5" width="47" height="47" rx="5.5" fill="none" stroke="#705e35"/>
  <path fill="#d2b36f" d="M16 15h32v9h-4c-.8-3-2.6-4.5-5.5-4.5H37V47c0 2.2 1.3 3.5 4 4v1H23v-1c2.7-.5 4-1.8 4-4V19.5h-1.5c-2.9 0-4.7 1.5-5.5 4.5h-4v-9Z"/>
  <path d="M12 12h8M12 12v8M52 44v8h-8" fill="none" stroke="#d2b36f" stroke-linecap="round"/>
  <circle cx="14" cy="48" r="1.5" fill="#d2b36f"/>
  <circle cx="50" cy="16" r="1.5" fill="#d2b36f"/>
</svg>
